<svg width="309" height="100" viewBox="0 0 309 100" fill="none" xmlns="http://www.w3.org/2000/svg">
<path d="M117 0.25H195C208.669 0.25 219.75 11.331 219.75 25V75C219.75 88.669 208.669 99.75 195 99.75H117C103.331 99.75 92.25 88.669 92.25 75V25C92.25 11.331 103.331 0.25 117 0.25Z" fill="#C3ECFF" stroke="black" stroke-width="0.5"/>
<path d="M214 17.25H294C302.146 17.25 308.75 23.8538 308.75 32V68C308.75 76.1462 302.146 82.75 294 82.75H214C205.854 82.75 199.25 76.1462 199.25 68V32C199.25 23.8538 205.854 17.25 214 17.25Z" fill="#FFCED7" stroke="black" stroke-width="0.5"/>
<path d="M244.732 28.1689L244.894 28.2031L244.327 30H239.2V29.8193H239.449C239.729 29.8193 239.929 29.7282 240.05 29.5459C240.118 29.4417 240.152 29.2008 240.152 28.8232V24.5508C240.152 24.1374 240.107 23.8786 240.016 23.7744C239.889 23.6312 239.7 23.5596 239.449 23.5596H239.2V23.3789H242.198V23.5596C241.847 23.5563 241.599 23.5889 241.456 23.6572C241.316 23.7256 241.22 23.8118 241.168 23.916C241.116 24.0202 241.09 24.2692 241.09 24.6631V28.8232C241.09 29.0934 241.116 29.279 241.168 29.3799C241.207 29.4482 241.267 29.4987 241.349 29.5312C241.43 29.5638 241.684 29.5801 242.11 29.5801H242.594C243.102 29.5801 243.458 29.5426 243.663 29.4678C243.868 29.3929 244.055 29.2611 244.225 29.0723C244.394 28.8802 244.563 28.5791 244.732 28.1689ZM249.688 27.7832H247.125L246.676 28.8281C246.565 29.0853 246.51 29.2773 246.51 29.4043C246.51 29.5052 246.557 29.5947 246.651 29.6729C246.749 29.7477 246.957 29.7965 247.276 29.8193V30H245.191V29.8193C245.468 29.7705 245.647 29.707 245.729 29.6289C245.895 29.4727 246.078 29.1553 246.28 28.6768L248.609 23.2275H248.78L251.085 28.7354C251.271 29.1781 251.438 29.4661 251.588 29.5996C251.741 29.7298 251.952 29.8031 252.223 29.8193V30H249.61V29.8193C249.874 29.8063 250.051 29.7624 250.143 29.6875C250.237 29.6126 250.284 29.5215 250.284 29.4141C250.284 29.2708 250.219 29.0446 250.089 28.7354L249.688 27.7832ZM249.552 27.4219L248.429 24.7461L247.276 27.4219H249.552ZM252.208 23.3789H254.005L258.053 28.3447V24.5264C258.053 24.1195 258.007 23.8656 257.916 23.7646C257.796 23.6279 257.605 23.5596 257.345 23.5596H257.115V23.3789H259.42V23.5596H259.186C258.906 23.5596 258.707 23.6442 258.59 23.8135C258.518 23.9176 258.482 24.1553 258.482 24.5264V30.1074H258.307L253.941 24.7754V28.8525C253.941 29.2594 253.985 29.5133 254.073 29.6143C254.197 29.751 254.387 29.8193 254.645 29.8193H254.879V30H252.574V29.8193H252.804C253.087 29.8193 253.287 29.7347 253.404 29.5654C253.476 29.4613 253.512 29.2236 253.512 28.8525V24.248C253.32 24.0234 253.173 23.8753 253.072 23.8037C252.975 23.7321 252.83 23.6654 252.638 23.6035C252.543 23.5742 252.4 23.5596 252.208 23.5596V23.3789ZM266.651 28.7256L266.188 30H262.281V29.8193C263.43 28.7712 264.239 27.915 264.708 27.251C265.177 26.5869 265.411 25.9798 265.411 25.4297C265.411 25.0098 265.283 24.6647 265.025 24.3945C264.768 24.1243 264.461 23.9893 264.103 23.9893C263.777 23.9893 263.484 24.0853 263.224 24.2773C262.966 24.4661 262.776 24.7445 262.652 25.1123H262.472C262.553 24.5101 262.761 24.0479 263.097 23.7256C263.435 23.4033 263.857 23.2422 264.361 23.2422C264.898 23.2422 265.346 23.4147 265.704 23.7598C266.065 24.1048 266.246 24.5117 266.246 24.9805C266.246 25.3158 266.168 25.651 266.012 25.9863C265.771 26.5137 265.38 27.0719 264.84 27.6611C264.029 28.5465 263.523 29.0804 263.321 29.2627H265.05C265.401 29.2627 265.647 29.2497 265.787 29.2236C265.93 29.1976 266.059 29.1455 266.173 29.0674C266.287 28.986 266.386 28.8721 266.471 28.7256H266.651Z" fill="black"/>
<path d="M15 17.25H95C103.146 17.25 109.75 23.8538 109.75 32V68C109.75 76.1462 103.146 82.75 95 82.75H15C6.8538 82.75 0.25 76.1462 0.25 68V32C0.25 23.8538 6.8538 17.25 15 17.25Z" fill="#FFCED7" stroke="black" stroke-width="0.5"/>
<path d="M187.354 27.3536C187.549 27.1583 187.549 26.8417 187.354 26.6464L184.172 23.4645C183.976 23.2692 183.66 23.2692 183.464 23.4645C183.269 23.6597 183.269 23.9763 183.464 24.1716L186.293 27L183.464 29.8284C183.269 30.0237 183.269 30.3403 183.464 30.5355C183.66 30.7308 183.976 30.7308 184.172 30.5355L187.354 27.3536ZM145 27.5H187V26.5H145V27.5Z" fill="black"/>
<path d="M208.354 53.3536C208.549 53.1583 208.549 52.8417 208.354 52.6464L205.172 49.4645C204.976 49.2692 204.66 49.2692 204.464 49.4645C204.269 49.6597 204.269 49.9763 204.464 50.1716L207.293 53L204.464 55.8284C204.269 56.0237 204.269 56.3403 204.464 56.5355C204.66 56.7308 204.976 56.7308 205.172 56.5355L208.354 53.3536ZM164 53.5H208V52.5H164V53.5Z" fill="black"/>
<path d="M179.354 77.3536C179.549 77.1583 179.549 76.8417 179.354 76.6464L176.172 73.4645C175.976 73.2692 175.66 73.2692 175.464 73.4645C175.269 73.6597 175.269 73.9763 175.464 74.1716L178.293 77L175.464 79.8284C175.269 80.0237 175.269 80.3403 175.464 80.5355C175.66 80.7308 175.976 80.7308 176.172 80.5355L179.354 77.3536ZM124 77.5H179V76.5H124V77.5Z" fill="black"/>
<path d="M141.46 27.197C141.568 26.9431 141.451 26.6492 141.197 26.5404L137.061 24.7678C136.807 24.659 136.513 24.7766 136.404 25.0304C136.295 25.2842 136.413 25.5782 136.667 25.6869L140.343 27.2626L138.768 30.9392C138.659 31.193 138.777 31.4869 139.03 31.5957C139.284 31.7045 139.578 31.5869 139.687 31.3331L141.46 27.197ZM101.186 43.4642L141.186 27.4642L140.814 26.5358L100.814 42.5358L101.186 43.4642Z" fill="black"/>
<path d="M211.48 61.1388C211.557 60.8735 211.404 60.5963 211.139 60.5196L206.816 59.2707C206.55 59.1941 206.273 59.347 206.196 59.6123C206.12 59.8776 206.273 60.1548 206.538 60.2314L210.381 61.3416L209.271 65.1844C209.194 65.4497 209.347 65.7269 209.612 65.8036C209.878 65.8802 210.155 65.7273 210.231 65.462L211.48 61.1388ZM182.242 77.4378L211.242 61.4378L210.758 60.5622L181.758 76.5622L182.242 77.4378Z" fill="black"/>
<path d="M121.013 76.4998C121.289 76.4928 121.507 76.2632 121.5 75.9872L121.384 71.4887C121.377 71.2126 121.148 70.9946 120.872 71.0016C120.596 71.0087 120.378 71.2382 120.385 71.5143L120.487 75.513L116.489 75.6155C116.213 75.6226 115.995 75.8521 116.002 76.1282C116.009 76.4042 116.238 76.6223 116.514 76.6152L121.013 76.4998ZM100.656 57.3625L120.656 76.3625L121.344 75.6375L101.344 56.6375L100.656 57.3625Z" fill="black"/>
<path d="M159.926 52.4945C160.199 52.5354 160.454 52.3473 160.494 52.0742L161.162 47.624C161.203 47.3509 161.015 47.0963 160.742 47.0553C160.469 47.0144 160.214 47.2025 160.173 47.4756L159.58 51.4314L155.624 50.838C155.351 50.797 155.096 50.9852 155.055 51.2583C155.014 51.5314 155.203 51.786 155.476 51.8269L159.926 52.4945ZM142.598 29.2972L159.598 52.2972L160.402 51.7028L143.402 28.7028L142.598 29.2972Z" fill="black"/>
<path d="M207 45.5C207.276 45.5 207.5 45.2761 207.5 45L207.5 40.5C207.5 40.2239 207.276 40 207 40C206.724 40 206.5 40.2239 206.5 40.5L206.5 44.5L202.5 44.5C202.224 44.5 202 44.7239 202 45C202 45.2761 202.224 45.5 202.5 45.5L207 45.5ZM188.646 27.3536L206.646 45.3536L207.354 44.6464L189.354 26.6464L188.646 27.3536Z" fill="black"/>
<path d="M143.585 6.22754V8.51758H143.404C143.346 8.07812 143.24 7.72819 143.087 7.46777C142.937 7.20736 142.722 7.00065 142.442 6.84766C142.162 6.69466 141.873 6.61816 141.573 6.61816C141.235 6.61816 140.955 6.72233 140.733 6.93066C140.512 7.13574 140.401 7.37012 140.401 7.63379C140.401 7.83561 140.471 8.01953 140.611 8.18555C140.813 8.42969 141.293 8.75521 142.052 9.16211C142.67 9.49414 143.092 9.74967 143.316 9.92871C143.544 10.1045 143.718 10.3128 143.839 10.5537C143.963 10.7946 144.024 11.0469 144.024 11.3105C144.024 11.8118 143.829 12.2448 143.438 12.6094C143.051 12.9707 142.551 13.1514 141.939 13.1514C141.747 13.1514 141.567 13.1367 141.397 13.1074C141.297 13.0911 141.087 13.0326 140.768 12.9316C140.452 12.8275 140.252 12.7754 140.167 12.7754C140.086 12.7754 140.021 12.7998 139.972 12.8486C139.926 12.8975 139.892 12.9984 139.869 13.1514H139.688V10.8809H139.869C139.954 11.3561 140.068 11.7126 140.211 11.9502C140.354 12.1846 140.572 12.3799 140.865 12.5361C141.161 12.6924 141.485 12.7705 141.837 12.7705C142.244 12.7705 142.564 12.6631 142.799 12.4482C143.036 12.2334 143.155 11.9795 143.155 11.6865C143.155 11.5238 143.11 11.3594 143.019 11.1934C142.931 11.0273 142.792 10.8727 142.604 10.7295C142.477 10.6318 142.13 10.4251 141.563 10.1094C140.997 9.79036 140.593 9.53646 140.353 9.34766C140.115 9.15885 139.934 8.95052 139.811 8.72266C139.687 8.49479 139.625 8.24414 139.625 7.9707C139.625 7.49544 139.807 7.08691 140.172 6.74512C140.536 6.40007 141 6.22754 141.563 6.22754C141.915 6.22754 142.288 6.3138 142.682 6.48633C142.864 6.56771 142.993 6.6084 143.067 6.6084C143.152 6.6084 143.22 6.58398 143.272 6.53516C143.328 6.48307 143.372 6.38053 143.404 6.22754H143.585ZM150.587 6.22754L150.738 8.47852H150.587C150.385 7.80469 150.097 7.31966 149.723 7.02344C149.348 6.72721 148.899 6.5791 148.375 6.5791C147.936 6.5791 147.538 6.69141 147.184 6.91602C146.829 7.13737 146.549 7.49219 146.344 7.98047C146.142 8.46875 146.041 9.07585 146.041 9.80176C146.041 10.4007 146.137 10.9199 146.329 11.3594C146.521 11.7988 146.809 12.1357 147.193 12.3701C147.581 12.6045 148.022 12.7217 148.517 12.7217C148.946 12.7217 149.326 12.6305 149.654 12.4482C149.983 12.2627 150.344 11.8965 150.738 11.3496L150.89 11.4473C150.558 12.0365 150.17 12.4678 149.728 12.7412C149.285 13.0146 148.759 13.1514 148.15 13.1514C147.053 13.1514 146.204 12.7445 145.602 11.9307C145.152 11.3252 144.928 10.6123 144.928 9.79199C144.928 9.13118 145.076 8.52409 145.372 7.9707C145.668 7.41732 146.075 6.98926 146.593 6.68652C147.114 6.38053 147.682 6.22754 148.297 6.22754C148.775 6.22754 149.247 6.34473 149.713 6.5791C149.85 6.65072 149.947 6.68652 150.006 6.68652C150.094 6.68652 150.17 6.6556 150.235 6.59375C150.32 6.50586 150.38 6.38379 150.416 6.22754H150.587ZM154.322 12.8193V13H151.485V12.8193H151.72C151.993 12.8193 152.192 12.7396 152.315 12.5801C152.394 12.4759 152.433 12.2253 152.433 11.8281V7.55078C152.433 7.21549 152.411 6.99414 152.369 6.88672C152.337 6.80534 152.27 6.73535 152.169 6.67676C152.026 6.59863 151.876 6.55957 151.72 6.55957H151.485V6.37891H154.322V6.55957H154.083C153.813 6.55957 153.616 6.63932 153.492 6.79883C153.411 6.90299 153.37 7.15365 153.37 7.55078V11.8281C153.37 12.1634 153.391 12.3848 153.434 12.4922C153.466 12.5736 153.535 12.6436 153.639 12.7021C153.779 12.7803 153.927 12.8193 154.083 12.8193H154.322ZM158.224 6.22754C159.083 6.22754 159.827 6.55469 160.455 7.20898C161.087 7.86003 161.402 8.67383 161.402 9.65039C161.402 10.6562 161.085 11.4912 160.45 12.1553C159.815 12.8193 159.047 13.1514 158.146 13.1514C157.234 13.1514 156.467 12.8275 155.846 12.1797C155.227 11.5319 154.918 10.6937 154.918 9.66504C154.918 8.61361 155.276 7.75586 155.992 7.0918C156.614 6.51562 157.358 6.22754 158.224 6.22754ZM158.131 6.58398C157.538 6.58398 157.063 6.80371 156.705 7.24316C156.259 7.79004 156.036 8.59082 156.036 9.64551C156.036 10.7262 156.267 11.5579 156.729 12.1406C157.084 12.5833 157.553 12.8047 158.136 12.8047C158.757 12.8047 159.27 12.5622 159.674 12.0771C160.081 11.5921 160.284 10.8271 160.284 9.78223C160.284 8.64941 160.061 7.80469 159.615 7.24805C159.257 6.80534 158.762 6.58398 158.131 6.58398ZM161.661 6.37891H163.458L167.506 11.3447V7.52637C167.506 7.11947 167.46 6.86556 167.369 6.76465C167.249 6.62793 167.058 6.55957 166.798 6.55957H166.568V6.37891H168.873V6.55957H168.639C168.359 6.55957 168.16 6.64421 168.043 6.81348C167.971 6.91764 167.936 7.15527 167.936 7.52637V13.1074H167.76L163.395 7.77539V11.8525C163.395 12.2594 163.438 12.5133 163.526 12.6143C163.65 12.751 163.84 12.8193 164.098 12.8193H164.332V13H162.027V12.8193H162.257C162.54 12.8193 162.74 12.7347 162.857 12.5654C162.929 12.4613 162.965 12.2236 162.965 11.8525V7.24805C162.773 7.02344 162.626 6.87533 162.525 6.80371C162.428 6.7321 162.283 6.66536 162.091 6.60352C161.996 6.57422 161.853 6.55957 161.661 6.55957V6.37891Z" fill="black"/>
<rect x="70.25" y="35.25" width="29.5" height="29.5" rx="14.75" fill="white" stroke="black" stroke-width="0.5"/>
<path d="M81.6533 50.5586V51.252H80.7646V53H79.959V51.252H77.1562V50.627L80.2275 46.2422H80.7646V50.5586H81.6533ZM79.959 50.5586V47.2725L77.6348 50.5586H79.959ZM86.585 46.2275V48.5176H86.4043C86.3457 48.0781 86.2399 47.7282 86.0869 47.4678C85.9372 47.2074 85.7223 47.0007 85.4424 46.8477C85.1624 46.6947 84.8727 46.6182 84.5732 46.6182C84.2347 46.6182 83.9548 46.7223 83.7334 46.9307C83.512 47.1357 83.4014 47.3701 83.4014 47.6338C83.4014 47.8356 83.4714 48.0195 83.6113 48.1855C83.8132 48.4297 84.2933 48.7552 85.0518 49.1621C85.6702 49.4941 86.0918 49.7497 86.3164 49.9287C86.5443 50.1045 86.7184 50.3128 86.8389 50.5537C86.9626 50.7946 87.0244 51.0469 87.0244 51.3105C87.0244 51.8118 86.8291 52.2448 86.4385 52.6094C86.0511 52.9707 85.5514 53.1514 84.9395 53.1514C84.7474 53.1514 84.5667 53.1367 84.3975 53.1074C84.2965 53.0911 84.0866 53.0326 83.7676 52.9316C83.4518 52.8275 83.2516 52.7754 83.167 52.7754C83.0856 52.7754 83.0205 52.7998 82.9717 52.8486C82.9261 52.8975 82.8919 52.9984 82.8691 53.1514H82.6885V50.8809H82.8691C82.9538 51.3561 83.0677 51.7126 83.2109 51.9502C83.3542 52.1846 83.5723 52.3799 83.8652 52.5361C84.1615 52.6924 84.4854 52.7705 84.8369 52.7705C85.2438 52.7705 85.5645 52.6631 85.7988 52.4482C86.0365 52.2334 86.1553 51.9795 86.1553 51.6865C86.1553 51.5238 86.1097 51.3594 86.0186 51.1934C85.9307 51.0273 85.7923 50.8727 85.6035 50.7295C85.4766 50.6318 85.1299 50.4251 84.5635 50.1094C83.9971 49.7904 83.5934 49.5365 83.3525 49.3477C83.1149 49.1589 82.9342 48.9505 82.8105 48.7227C82.6868 48.4948 82.625 48.2441 82.625 47.9707C82.625 47.4954 82.8073 47.0869 83.1719 46.7451C83.5365 46.4001 84.0003 46.2275 84.5635 46.2275C84.915 46.2275 85.2878 46.3138 85.6816 46.4863C85.8639 46.5677 85.9925 46.6084 86.0674 46.6084C86.152 46.6084 86.2204 46.584 86.2725 46.5352C86.3278 46.4831 86.3717 46.3805 86.4043 46.2275H86.585ZM89.6172 49.8994V51.8281C89.6172 52.2448 89.6628 52.5036 89.7539 52.6045C89.8776 52.7477 90.0648 52.8193 90.3154 52.8193H90.5693V53H87.7324V52.8193H87.9814C88.2614 52.8193 88.4616 52.7282 88.582 52.5459C88.6471 52.445 88.6797 52.2057 88.6797 51.8281V47.5508C88.6797 47.1341 88.6357 46.8753 88.5479 46.7744C88.4209 46.6312 88.2321 46.5596 87.9814 46.5596H87.7324V46.3789H90.1592C90.7516 46.3789 91.2188 46.4408 91.5605 46.5645C91.9023 46.6849 92.1904 46.89 92.4248 47.1797C92.6592 47.4694 92.7764 47.8128 92.7764 48.21C92.7764 48.7503 92.5973 49.1898 92.2393 49.5283C91.8844 49.8669 91.3815 50.0361 90.7305 50.0361C90.571 50.0361 90.3984 50.0247 90.2129 50.002C90.0273 49.9792 89.8288 49.945 89.6172 49.8994ZM89.6172 49.6211C89.7897 49.6536 89.9427 49.6781 90.0762 49.6943C90.2096 49.7106 90.3236 49.7188 90.418 49.7188C90.7565 49.7188 91.0479 49.5885 91.292 49.3281C91.5394 49.0645 91.6631 48.7243 91.6631 48.3076C91.6631 48.0212 91.6045 47.7559 91.4873 47.5117C91.3701 47.2643 91.2041 47.0804 90.9893 46.96C90.7744 46.8363 90.5303 46.7744 90.2568 46.7744C90.0908 46.7744 89.8776 46.8053 89.6172 46.8672V49.6211Z" fill="black"/>
<rect x="209.25" y="35.25" width="29.5" height="29.5" rx="14.75" fill="white" stroke="black" stroke-width="0.5"/>
<path d="M220.653 50.5586V51.252H219.765V53H218.959V51.252H216.156V50.627L219.228 46.2422H219.765V50.5586H220.653ZM218.959 50.5586V47.2725L216.635 50.5586H218.959ZM225.585 46.2275V48.5176H225.404C225.346 48.0781 225.24 47.7282 225.087 47.4678C224.937 47.2074 224.722 47.0007 224.442 46.8477C224.162 46.6947 223.873 46.6182 223.573 46.6182C223.235 46.6182 222.955 46.7223 222.733 46.9307C222.512 47.1357 222.401 47.3701 222.401 47.6338C222.401 47.8356 222.471 48.0195 222.611 48.1855C222.813 48.4297 223.293 48.7552 224.052 49.1621C224.67 49.4941 225.092 49.7497 225.316 49.9287C225.544 50.1045 225.718 50.3128 225.839 50.5537C225.963 50.7946 226.024 51.0469 226.024 51.3105C226.024 51.8118 225.829 52.2448 225.438 52.6094C225.051 52.9707 224.551 53.1514 223.939 53.1514C223.747 53.1514 223.567 53.1367 223.397 53.1074C223.297 53.0911 223.087 53.0326 222.768 52.9316C222.452 52.8275 222.252 52.7754 222.167 52.7754C222.086 52.7754 222.021 52.7998 221.972 52.8486C221.926 52.8975 221.892 52.9984 221.869 53.1514H221.688V50.8809H221.869C221.954 51.3561 222.068 51.7126 222.211 51.9502C222.354 52.1846 222.572 52.3799 222.865 52.5361C223.161 52.6924 223.485 52.7705 223.837 52.7705C224.244 52.7705 224.564 52.6631 224.799 52.4482C225.036 52.2334 225.155 51.9795 225.155 51.6865C225.155 51.5238 225.11 51.3594 225.019 51.1934C224.931 51.0273 224.792 50.8727 224.604 50.7295C224.477 50.6318 224.13 50.4251 223.563 50.1094C222.997 49.7904 222.593 49.5365 222.353 49.3477C222.115 49.1589 221.934 48.9505 221.811 48.7227C221.687 48.4948 221.625 48.2441 221.625 47.9707C221.625 47.4954 221.807 47.0869 222.172 46.7451C222.536 46.4001 223 46.2275 223.563 46.2275C223.915 46.2275 224.288 46.3138 224.682 46.4863C224.864 46.5677 224.993 46.6084 225.067 46.6084C225.152 46.6084 225.22 46.584 225.272 46.5352C225.328 46.4831 225.372 46.3805 225.404 46.2275H225.585ZM228.617 49.8994V51.8281C228.617 52.2448 228.663 52.5036 228.754 52.6045C228.878 52.7477 229.065 52.8193 229.315 52.8193H229.569V53H226.732V52.8193H226.981C227.261 52.8193 227.462 52.7282 227.582 52.5459C227.647 52.445 227.68 52.2057 227.68 51.8281V47.5508C227.68 47.1341 227.636 46.8753 227.548 46.7744C227.421 46.6312 227.232 46.5596 226.981 46.5596H226.732V46.3789H229.159C229.752 46.3789 230.219 46.4408 230.561 46.5645C230.902 46.6849 231.19 46.89 231.425 47.1797C231.659 47.4694 231.776 47.8128 231.776 48.21C231.776 48.7503 231.597 49.1898 231.239 49.5283C230.884 49.8669 230.382 50.0361 229.73 50.0361C229.571 50.0361 229.398 50.0247 229.213 50.002C229.027 49.9792 228.829 49.945 228.617 49.8994ZM228.617 49.6211C228.79 49.6536 228.943 49.6781 229.076 49.6943C229.21 49.7106 229.324 49.7188 229.418 49.7188C229.757 49.7188 230.048 49.5885 230.292 49.3281C230.539 49.0645 230.663 48.7243 230.663 48.3076C230.663 48.0212 230.604 47.7559 230.487 47.5117C230.37 47.2643 230.204 47.0804 229.989 46.96C229.774 46.8363 229.53 46.7744 229.257 46.7744C229.091 46.7744 228.878 46.8053 228.617 46.8672V49.6211Z" fill="black"/>
<rect x="10.25" y="35.25" width="29.5" height="29.5" rx="14.75" fill="white" stroke="black" stroke-width="0.5"/>
<path d="M26.5752 50.7832H24.0117L23.5625 51.8281C23.4518 52.0853 23.3965 52.2773 23.3965 52.4043C23.3965 52.5052 23.4437 52.5947 23.5381 52.6729C23.6357 52.7477 23.8441 52.7965 24.1631 52.8193V53H22.0781V52.8193C22.3548 52.7705 22.5339 52.707 22.6152 52.6289C22.7812 52.4727 22.9652 52.1553 23.167 51.6768L25.4961 46.2275H25.667L27.9717 51.7354C28.1572 52.1781 28.3249 52.4661 28.4746 52.5996C28.6276 52.7298 28.8392 52.8031 29.1094 52.8193V53H26.4971V52.8193C26.7607 52.8063 26.9382 52.7624 27.0293 52.6875C27.1237 52.6126 27.1709 52.5215 27.1709 52.4141C27.1709 52.2708 27.1058 52.0446 26.9756 51.7354L26.5752 50.7832ZM26.4385 50.4219L25.3154 47.7461L24.1631 50.4219H26.4385Z" fill="black"/>
<rect x="269.25" y="35.25" width="29.5" height="29.5" rx="14.75" fill="white" stroke="black" stroke-width="0.5"/>
<path d="M285.619 49.6211C286.078 49.7188 286.422 49.875 286.649 50.0898C286.965 50.3893 287.123 50.7555 287.123 51.1885C287.123 51.5173 287.019 51.833 286.811 52.1357C286.602 52.4352 286.316 52.6549 285.951 52.7949C285.59 52.9316 285.036 53 284.291 53H281.166V52.8193H281.415C281.692 52.8193 281.89 52.7314 282.011 52.5557C282.086 52.4417 282.123 52.1992 282.123 51.8281V47.5508C282.123 47.1406 282.076 46.8818 281.981 46.7744C281.854 46.6312 281.666 46.5596 281.415 46.5596H281.166V46.3789H284.027C284.561 46.3789 284.989 46.418 285.312 46.4961C285.8 46.6133 286.173 46.8216 286.43 47.1211C286.687 47.4173 286.815 47.7591 286.815 48.1465C286.815 48.4785 286.715 48.7764 286.513 49.04C286.311 49.3005 286.013 49.4941 285.619 49.6211ZM283.061 49.3574C283.181 49.3802 283.318 49.3981 283.471 49.4111C283.627 49.4209 283.798 49.4258 283.983 49.4258C284.459 49.4258 284.815 49.3753 285.053 49.2744C285.294 49.1702 285.478 49.0124 285.604 48.8008C285.731 48.5892 285.795 48.3581 285.795 48.1074C285.795 47.7201 285.637 47.3896 285.321 47.1162C285.006 46.8428 284.545 46.7061 283.939 46.7061C283.614 46.7061 283.321 46.7419 283.061 46.8135V49.3574ZM283.061 52.5215C283.438 52.6094 283.811 52.6533 284.179 52.6533C284.768 52.6533 285.217 52.5215 285.526 52.2578C285.836 51.9909 285.99 51.6621 285.99 51.2715C285.99 51.0143 285.92 50.7669 285.78 50.5293C285.64 50.2917 285.412 50.1045 285.097 49.9678C284.781 49.8311 284.39 49.7627 283.925 49.7627C283.723 49.7627 283.55 49.766 283.407 49.7725C283.264 49.779 283.148 49.7904 283.061 49.8066V52.5215Z" fill="black"/>
<path d="M69.3536 50.3536C69.5488 50.1583 69.5488 49.8417 69.3536 49.6464L66.1716 46.4645C65.9763 46.2692 65.6597 46.2692 65.4645 46.4645C65.2692 46.6597 65.2692 46.9763 65.4645 47.1716L68.2929 50L65.4645 52.8284C65.2692 53.0237 65.2692 53.3403 65.4645 53.5355C65.6597 53.7308 65.9763 53.7308 66.1716 53.5355L69.3536 50.3536ZM41 50.5L69 50.5L69 49.5L41 49.5L41 50.5Z" fill="black"/>
<path d="M268.354 50.3536C268.549 50.1583 268.549 49.8417 268.354 49.6464L265.172 46.4645C264.976 46.2692 264.66 46.2692 264.464 46.4645C264.269 46.6597 264.269 46.9763 264.464 47.1716L267.293 50L264.464 52.8284C264.269 53.0237 264.269 53.3403 264.464 53.5355C264.66 53.7308 264.976 53.7308 265.172 53.5355L268.354 50.3536ZM240 50.5L268 50.5L268 49.5L240 49.5L240 50.5Z" fill="black"/>
<path d="M46.7324 28.1689L46.8936 28.2031L46.3271 30H41.2002V29.8193H41.4492C41.7292 29.8193 41.9294 29.7282 42.0498 29.5459C42.1182 29.4417 42.1523 29.2008 42.1523 28.8232V24.5508C42.1523 24.1374 42.1068 23.8786 42.0156 23.7744C41.8887 23.6312 41.6999 23.5596 41.4492 23.5596H41.2002V23.3789H44.1982V23.5596C43.8467 23.5563 43.5993 23.5889 43.4561 23.6572C43.3161 23.7256 43.2201 23.8118 43.168 23.916C43.1159 24.0202 43.0898 24.2692 43.0898 24.6631V28.8232C43.0898 29.0934 43.1159 29.279 43.168 29.3799C43.207 29.4482 43.2673 29.4987 43.3486 29.5312C43.43 29.5638 43.6839 29.5801 44.1104 29.5801H44.5938C45.1016 29.5801 45.458 29.5426 45.6631 29.4678C45.8682 29.3929 46.0553 29.2611 46.2246 29.0723C46.3939 28.8802 46.5632 28.5791 46.7324 28.1689ZM51.6885 27.7832H49.125L48.6758 28.8281C48.5651 29.0853 48.5098 29.2773 48.5098 29.4043C48.5098 29.5052 48.557 29.5947 48.6514 29.6729C48.749 29.7477 48.9574 29.7965 49.2764 29.8193V30H47.1914V29.8193C47.4681 29.7705 47.6471 29.707 47.7285 29.6289C47.8945 29.4727 48.0785 29.1553 48.2803 28.6768L50.6094 23.2275H50.7803L53.085 28.7354C53.2705 29.1781 53.4382 29.4661 53.5879 29.5996C53.7409 29.7298 53.9525 29.8031 54.2227 29.8193V30H51.6104V29.8193C51.874 29.8063 52.0514 29.7624 52.1426 29.6875C52.237 29.6126 52.2842 29.5215 52.2842 29.4141C52.2842 29.2708 52.2191 29.0446 52.0889 28.7354L51.6885 27.7832ZM51.5518 27.4219L50.4287 24.7461L49.2764 27.4219H51.5518ZM54.208 23.3789H56.0049L60.0527 28.3447V24.5264C60.0527 24.1195 60.0072 23.8656 59.916 23.7646C59.7956 23.6279 59.6051 23.5596 59.3447 23.5596H59.1152V23.3789H61.4199V23.5596H61.1855C60.9056 23.5596 60.707 23.6442 60.5898 23.8135C60.5182 23.9176 60.4824 24.1553 60.4824 24.5264V30.1074H60.3066L55.9414 24.7754V28.8525C55.9414 29.2594 55.9854 29.5133 56.0732 29.6143C56.1969 29.751 56.3874 29.8193 56.6445 29.8193H56.8789V30H54.5742V29.8193H54.8037C55.0869 29.8193 55.2871 29.7347 55.4043 29.5654C55.4759 29.4613 55.5117 29.2236 55.5117 28.8525V24.248C55.3197 24.0234 55.1732 23.8753 55.0723 23.8037C54.9746 23.7321 54.8298 23.6654 54.6377 23.6035C54.5433 23.5742 54.4001 23.5596 54.208 23.5596V23.3789ZM65.2383 24.0283L66.8496 23.2422H67.0107V28.833C67.0107 29.2041 67.0254 29.4352 67.0547 29.5264C67.0872 29.6175 67.1523 29.6875 67.25 29.7363C67.3477 29.7852 67.5462 29.8128 67.8457 29.8193V30H65.3555V29.8193C65.668 29.8128 65.8698 29.7868 65.9609 29.7412C66.0521 29.6924 66.1156 29.6289 66.1514 29.5508C66.1872 29.4694 66.2051 29.2301 66.2051 28.833V25.2588C66.2051 24.777 66.1888 24.4678 66.1562 24.3311C66.1335 24.2269 66.0911 24.1504 66.0293 24.1016C65.9707 24.0527 65.8991 24.0283 65.8145 24.0283C65.694 24.0283 65.5264 24.0788 65.3115 24.1797L65.2383 24.0283Z" fill="black"/>
</svg>
